<?xml version="1.0" standalone="no"?>
<svg xmlns="http://www.w3.org/2000/svg" viewBox="0 0 101.391 117.076" width="101.391" height="117.076"><polygon fill="#212136" points="101.391,29.269 101.391,87.80699999999999 50.6955,117.076 0,87.80699999999999 0,29.269 50.6955,0"></polygon><path fill="white" fill-rule="nonzero" d="M0 19.66L0 19.66L3.47 0.42Q3.50 0.31 3.61 0.31L3.61 0.31L7.67 0.31Q7.78 0.31 7.81 0.42L7.81 0.42L11.14 19.66Q11.17 19.80 11.03 19.80L11.03 19.80L7.92 19.80Q7.81 19.80 7.78 19.66L7.78 19.66L7.48 17.61L3.67 17.61L3.36 19.66Q3.33 19.80 3.22 19.80L3.22 19.80L0.11 19.80Q0 19.80 0 19.66ZM5.49 6.75L4.23 14.62L6.92 14.62L5.77 6.75L5.60 5.71L5.49 6.75ZM17.50 20.08L17.50 20.08Q15.96 20.08 14.71 19.31Q13.47 18.54 12.74 17.25Q12.01 15.96 12.01 14.36L12.01 14.36L12.04 5.63Q12.04 4.09 12.75 2.81Q13.47 1.54 14.71 0.77Q15.96 0 17.50 0L17.50 0Q19.04 0 20.27 0.76Q21.50 1.51 22.23 2.79Q22.96 4.06 22.96 5.63L22.96 5.63L22.96 6.92Q22.96 7.03 22.85 7.03L22.85 7.03L19.71 7.03Q19.60 7.03 19.60 6.92L19.60 6.92L19.60 5.63Q19.60 4.70 19.00 4.03Q18.40 3.36 17.50 3.36L17.50 3.36Q16.49 3.36 15.96 4.05Q15.43 4.73 15.43 5.63L15.43 5.63L15.43 14.36Q15.43 15.40 16.03 16.04Q16.63 16.69 17.50 16.69L17.50 16.69Q18.40 16.69 19.00 15.97Q19.60 15.26 19.60 14.36L19.60 14.36L19.60 13.08Q19.60 12.96 19.71 12.96L19.71 12.96L22.88 12.96Q22.99 12.96 22.99 13.08L22.99 13.08L22.99 14.36Q22.99 15.96 22.25 17.25Q21.50 18.54 20.27 19.31Q19.04 20.08 17.50 20.08Z" transform="translate(39.202, 23.5)"></path><g fill="white" color="white" transform="translate(28.695500000000003 51.576) scale(1)"><svg width="44.0" height="44.0" x="0.0" y="0.0" viewBox="0 0 44 44"><path fill="currentColor" fill-rule="evenodd" d="M21.973 29.756l14.787 8.535-9.168 5.28-5.605-3.224-5.563 3.225-9.182-5.281 14.73-8.535zm0-15.005L44 27.454v6.492l-3.52 2.07-18.506-10.675L3.525 36.016l-3.52-2.042v-6.52L21.973 14.75zM21.97 0l22.026 12.689v10.576L21.984 10.591 0 23.294V12.703L21.97 0z"></path></svg></g></svg>