<?xml version="1.0" standalone="no"?>
<svg xmlns="http://www.w3.org/2000/svg" width="214.36254901960785" height="67.56254901960784" viewBox="0 0 214.36254901960785 67.56254901960784"><path fill="#ead017" fill-rule="nonzero" d="M0 28.08L0 28.08L4.96 0.60Q5 0.44 5.16 0.44L5.16 0.44L10.96 0.44Q11.12 0.44 11.16 0.60L11.16 0.60L15.92 28.08Q15.96 28.28 15.76 28.28L15.76 28.28L11.32 28.28Q11.16 28.28 11.12 28.08L11.12 28.08L10.68 25.16L5.24 25.16L4.80 28.08Q4.76 28.28 4.60 28.28L4.60 28.28L0.16 28.28Q0 28.28 0 28.08ZM7.84 9.64L6.04 20.88L9.88 20.88L8.24 9.64L8 8.16L7.84 9.64ZM23.12 28.28L18.60 28.28Q18.44 28.28 18.44 28.08L18.44 28.08L18.52 0.60Q18.52 0.44 18.68 0.44L18.68 0.44L26.76 0.44Q28.92 0.44 30.74 1.50Q32.56 2.56 33.64 4.34Q34.72 6.12 34.72 8.36L34.72 8.36Q34.72 9.84 34.28 11.02Q33.84 12.20 33.24 13.02Q32.64 13.84 32.16 14.24L32.16 14.24Q34.32 16.64 34.32 19.88L34.32 19.88L34.36 28.08Q34.36 28.28 34.16 28.28L34.16 28.28L29.64 28.28Q29.48 28.28 29.48 28.16L29.48 28.16L29.48 19.88Q29.48 18.44 28.46 17.38Q27.44 16.32 25.96 16.32L25.96 16.32L23.32 16.32L23.28 28.08Q23.28 28.28 23.12 28.28L23.12 28.28ZM23.32 5.24L23.32 11.52L26.76 11.52Q28.00 11.52 28.96 10.60Q29.92 9.68 29.92 8.36L29.92 8.36Q29.92 7.08 28.98 6.16Q28.04 5.24 26.76 5.24L26.76 5.24L23.32 5.24ZM42.08 28.28L38.08 28.28Q37.76 28.28 37.76 28L37.76 28L37.72 0.76Q37.72 0.44 38.04 0.44L38.04 0.44L41.64 0.44L48.40 16.20L48.20 0.76Q48.20 0.44 48.56 0.44L48.56 0.44L52.52 0.44Q52.76 0.44 52.76 0.76L52.76 0.76L52.80 28.04Q52.80 28.28 52.60 28.28L52.60 28.28L49.08 28.28L42.16 13.56L42.44 27.96Q42.44 28.28 42.08 28.28L42.08 28.28ZM54.92 28.08L54.92 28.08L59.88 0.60Q59.92 0.44 60.08 0.44L60.08 0.44L65.88 0.44Q66.04 0.44 66.08 0.60L66.08 0.60L70.84 28.08Q70.88 28.28 70.68 28.28L70.68 28.28L66.24 28.28Q66.08 28.28 66.04 28.08L66.04 28.08L65.60 25.16L60.16 25.16L59.72 28.08Q59.68 28.28 59.52 28.28L59.52 28.28L55.08 28.28Q54.92 28.28 54.92 28.08ZM62.76 9.64L60.96 20.88L64.80 20.88L63.16 9.64L62.92 8.16L62.76 9.64ZM86.44 28.28L73.52 28.28Q73.36 28.28 73.36 28.08L73.36 28.08L73.40 0.64Q73.40 0.44 73.60 0.44L73.60 0.44L78.04 0.44Q78.24 0.44 78.24 0.64L78.24 0.64L78.20 23.36L86.44 23.36Q86.64 23.36 86.64 23.56L86.64 23.56L86.64 28.08Q86.64 28.28 86.44 28.28L86.44 28.28ZM96.60 28.24L89.44 28.28Q89.24 28.28 89.24 28.08L89.24 28.08L89.32 0.60Q89.32 0.44 89.48 0.44L89.48 0.44L96.96 0.40Q99.16 0.36 100.98 1.44Q102.80 2.52 103.88 4.34Q104.96 6.16 104.96 8.36L104.96 8.36L104.96 19.84Q104.96 22.16 103.84 24.06Q102.72 25.96 100.84 27.08Q98.96 28.20 96.60 28.24L96.60 28.24ZM94.16 5.24L94.12 23.36L96.60 23.36Q98.08 23.36 99.10 22.32Q100.12 21.28 100.12 19.84L100.12 19.84L100.12 8.32Q100.12 7.04 99.18 6.10Q98.24 5.16 96.96 5.20L96.96 5.20L94.16 5.24ZM114.56 28.68L114.56 28.68Q112.40 28.68 110.62 27.58Q108.84 26.48 107.76 24.66Q106.68 22.84 106.68 20.64L106.68 20.64L106.72 7.96Q106.72 5.76 107.78 3.96Q108.84 2.16 110.64 1.08Q112.44 0 114.56 0L114.56 0Q116.72 0 118.48 1.08Q120.24 2.16 121.30 3.96Q122.36 5.76 122.36 7.96L122.36 7.96L122.40 20.64Q122.40 22.84 121.34 24.66Q120.28 26.48 118.50 27.58Q116.72 28.68 114.56 28.68ZM114.56 23.84L114.56 23.84Q115.76 23.84 116.66 22.86Q117.56 21.88 117.56 20.64L117.56 20.64L117.52 7.96Q117.52 6.64 116.68 5.72Q115.84 4.80 114.56 4.80L114.56 4.80Q113.32 4.80 112.44 5.70Q111.56 6.60 111.56 7.96L111.56 7.96L111.56 20.64Q111.56 21.96 112.44 22.90Q113.32 23.84 114.56 23.84Z" transform="translate(0 0) scale(1.077)"></path><path fill="#ead017" fill-rule="nonzero" d="M7.84 28.68L7.84 28.68Q5.64 28.68 3.86 27.58Q2.08 26.48 1.04 24.64Q0 22.80 0 20.52L0 20.52L0.04 8.04Q0.04 5.84 1.06 4.02Q2.08 2.20 3.86 1.10Q5.64 0 7.84 0L7.84 0Q10.04 0 11.80 1.08Q13.56 2.16 14.60 3.98Q15.64 5.80 15.64 8.04L15.64 8.04L15.64 9.88Q15.64 10.04 15.48 10.04L15.48 10.04L11 10.04Q10.84 10.04 10.84 9.88L10.84 9.88L10.84 8.04Q10.84 6.72 9.98 5.76Q9.12 4.80 7.84 4.80L7.84 4.80Q6.40 4.80 5.64 5.78Q4.88 6.76 4.88 8.04L4.88 8.04L4.88 20.52Q4.88 22 5.74 22.92Q6.60 23.84 7.84 23.84L7.84 23.84Q9.12 23.84 9.98 22.82Q10.84 21.80 10.84 20.52L10.84 20.52L10.84 18.68Q10.84 18.52 11 18.52L11 18.52L15.52 18.52Q15.68 18.52 15.68 18.68L15.68 18.68L15.68 20.52Q15.68 22.80 14.62 24.64Q13.56 26.48 11.80 27.58Q10.04 28.68 7.84 28.68ZM23.32 28.28L18.80 28.28Q18.60 28.28 18.60 28.08L18.60 28.08L18.64 0.60Q18.64 0.44 18.80 0.44L18.80 0.44L23.28 0.44Q23.44 0.44 23.44 0.60L23.44 0.60L23.48 28.08Q23.48 28.28 23.32 28.28L23.32 28.28ZM33.80 28.68L33.80 28.68Q31.64 28.68 29.86 27.58Q28.08 26.48 27.02 24.66Q25.96 22.84 25.96 20.64L25.96 20.64L25.96 18.80Q25.96 18.60 26.16 18.60L26.16 18.60L30.64 18.60Q30.80 18.60 30.80 18.80L30.80 18.80L30.80 20.64Q30.80 21.96 31.68 22.90Q32.56 23.84 33.80 23.84L33.80 23.84Q35.04 23.84 35.92 22.88Q36.80 21.92 36.80 20.64L36.80 20.64Q36.80 19.16 34.88 18.08L34.88 18.08Q34.24 17.72 32.88 16.96Q31.52 16.20 30.32 15.52L30.32 15.52Q28.12 14.24 27.06 12.30Q26 10.36 26 7.92L26 7.92Q26 5.68 27.08 3.90Q28.16 2.12 29.94 1.08Q31.72 0.04 33.80 0.04L33.80 0.04Q35.92 0.04 37.70 1.10Q39.48 2.16 40.54 3.94Q41.60 5.72 41.60 7.92L41.60 7.92L41.60 11.20Q41.60 11.36 41.44 11.36L41.44 11.36L36.96 11.36Q36.80 11.36 36.80 11.20L36.80 11.20L36.76 7.92Q36.76 6.52 35.88 5.64Q35 4.76 33.80 4.76L33.80 4.76Q32.56 4.76 31.68 5.70Q30.80 6.64 30.80 7.92L30.80 7.92Q30.80 9.24 31.36 10.12Q31.92 11 33.40 11.80L33.40 11.80Q33.60 11.92 34.18 12.22Q34.76 12.52 35.44 12.90Q36.12 13.28 36.66 13.56Q37.20 13.84 37.32 13.92L37.32 13.92Q39.32 15.04 40.48 16.66Q41.64 18.28 41.64 20.64L41.64 20.64Q41.64 22.92 40.58 24.74Q39.52 26.56 37.74 27.62Q35.96 28.68 33.80 28.68ZM48.80 28.28L44.80 28.28Q44.48 28.28 44.48 28L44.48 28L44.44 0.76Q44.44 0.44 44.76 0.44L44.76 0.44L48.36 0.44L55.12 16.20L54.92 0.76Q54.92 0.44 55.28 0.44L55.28 0.44L59.24 0.44Q59.48 0.44 59.48 0.76L59.48 0.76L59.52 28.04Q59.52 28.28 59.32 28.28L59.32 28.28L55.80 28.28L48.88 13.56L49.16 27.96Q49.16 28.28 48.80 28.28L48.80 28.28ZM76.08 28.28L63.16 28.28Q63.00 28.28 63.00 28.08L63.00 28.08L63.04 0.60Q63.04 0.44 63.20 0.44L63.20 0.44L76.04 0.44Q76.20 0.44 76.20 0.64L76.20 0.64L76.20 5.12Q76.20 5.28 76.04 5.28L76.04 5.28L67.84 5.28L67.84 11.52L76.04 11.52Q76.20 11.52 76.20 11.68L76.20 11.68L76.24 16.20Q76.24 16.36 76.08 16.36L76.08 16.36L67.84 16.36L67.84 23.36L76.08 23.36Q76.24 23.36 76.24 23.56L76.24 23.56L76.24 28.12Q76.24 28.28 76.08 28.28L76.08 28.28ZM84.48 28.28L79.96 28.28Q79.80 28.28 79.80 28.08L79.80 28.08L79.88 0.60Q79.88 0.44 80.04 0.44L80.04 0.44L88.12 0.44Q90.28 0.44 92.10 1.50Q93.92 2.56 95 4.34Q96.08 6.12 96.08 8.36L96.08 8.36Q96.08 9.84 95.64 11.02Q95.20 12.20 94.60 13.02Q94 13.84 93.52 14.24L93.52 14.24Q95.68 16.64 95.68 19.88L95.68 19.88L95.72 28.08Q95.72 28.28 95.52 28.28L95.52 28.28L91 28.28Q90.84 28.28 90.84 28.16L90.84 28.16L90.84 19.88Q90.84 18.44 89.82 17.38Q88.80 16.32 87.32 16.32L87.32 16.32L84.68 16.32L84.64 28.08Q84.64 28.28 84.48 28.28L84.48 28.28ZM84.68 5.24L84.68 11.52L88.12 11.52Q89.36 11.52 90.32 10.60Q91.28 9.68 91.28 8.36L91.28 8.36Q91.28 7.08 90.34 6.16Q89.40 5.24 88.12 5.24L88.12 5.24L84.68 5.24ZM106.28 28.68L106.28 28.68Q104.12 28.68 102.34 27.58Q100.56 26.48 99.48 24.66Q98.40 22.84 98.40 20.64L98.40 20.64L98.44 7.96Q98.44 5.76 99.50 3.96Q100.56 2.16 102.36 1.08Q104.16 0 106.28 0L106.28 0Q108.44 0 110.20 1.08Q111.96 2.16 113.02 3.96Q114.08 5.76 114.08 7.96L114.08 7.96L114.12 20.64Q114.12 22.84 113.06 24.66Q112 26.48 110.22 27.58Q108.44 28.68 106.28 28.68ZM106.28 23.84L106.28 23.84Q107.48 23.84 108.38 22.86Q109.28 21.88 109.28 20.64L109.28 20.64L109.24 7.96Q109.24 6.64 108.40 5.72Q107.56 4.80 106.28 4.80L106.28 4.80Q105.04 4.80 104.16 5.70Q103.28 6.60 103.28 7.96L103.28 7.96L103.28 20.64Q103.28 21.96 104.16 22.90Q105.04 23.84 106.28 23.84ZM123.96 28.68L123.96 28.68Q121.80 28.68 120.02 27.58Q118.24 26.48 117.18 24.66Q116.12 22.84 116.12 20.64L116.12 20.64L116.12 18.80Q116.12 18.60 116.32 18.60L116.32 18.60L120.80 18.60Q120.96 18.60 120.96 18.80L120.96 18.80L120.96 20.64Q120.96 21.96 121.84 22.90Q122.72 23.84 123.96 23.84L123.96 23.84Q125.20 23.84 126.08 22.88Q126.96 21.92 126.96 20.64L126.96 20.64Q126.96 19.16 125.04 18.08L125.04 18.08Q124.40 17.72 123.04 16.96Q121.68 16.20 120.48 15.52L120.48 15.52Q118.28 14.24 117.22 12.30Q116.16 10.36 116.16 7.92L116.16 7.92Q116.16 5.68 117.24 3.90Q118.32 2.12 120.10 1.08Q121.88 0.04 123.96 0.04L123.96 0.04Q126.08 0.04 127.86 1.10Q129.64 2.16 130.70 3.94Q131.76 5.72 131.76 7.92L131.76 7.92L131.76 11.20Q131.76 11.36 131.60 11.36L131.60 11.36L127.12 11.36Q126.96 11.36 126.96 11.20L126.96 11.20L126.92 7.92Q126.92 6.52 126.04 5.64Q125.16 4.76 123.96 4.76L123.96 4.76Q122.72 4.76 121.84 5.70Q120.96 6.64 120.96 7.92L120.96 7.92Q120.96 9.24 121.52 10.12Q122.08 11 123.56 11.80L123.56 11.80Q123.76 11.92 124.34 12.22Q124.92 12.52 125.60 12.90Q126.28 13.28 126.82 13.56Q127.36 13.84 127.48 13.92L127.48 13.92Q129.48 15.04 130.64 16.66Q131.80 18.28 131.80 20.64L131.80 20.64Q131.80 22.92 130.74 24.74Q129.68 26.56 127.90 27.62Q126.12 28.68 123.96 28.68Z" transform="translate(0 38.883) scale(1)"></path><g fill="#ead017" color="#ead017" transform="translate(146.8 0) scale(1.5355125)"><svg width="44.0" height="44.0" x="0.0" y="0.0" viewBox="0 0 44 44"><path fill="currentColor" fill-rule="evenodd" d="M21.973 29.756l14.787 8.535-9.168 5.28-5.605-3.224-5.563 3.225-9.182-5.281 14.73-8.535zm0-15.005L44 27.454v6.492l-3.52 2.07-18.506-10.675L3.525 36.016l-3.52-2.042v-6.52L21.973 14.75zM21.97 0l22.026 12.689v10.576L21.984 10.591 0 23.294V12.703L21.97 0z"></path></svg></g></svg>